<svg clip-rule="evenodd" fill-rule="evenodd" stroke-linejoin="round" stroke-miterlimit="2" viewBox="0 0 48 48" xmlns="http://www.w3.org/2000/svg"><g fill-rule="nonzero"><path d="m425.828 90.672-36.508-36.5c-5.55-5.563-20.428-9.734-25.987-4.172l-16.666 16.667 66.666 66.666 16.667-16.666c5.562-5.567 1.391-20.417-4.172-25.995" fill="#e57373" transform="matrix(.12 0 0 .12 -9.6 0)"/><path d="m308.654 238.333-175.321 175-66.666-66.666 175-175z" fill="#ff9800" transform="matrix(.12 0 0 .12 0 -9.6)"/><path d="m321.667 91.667 25-25 66.666 66.666-24.679 25z" fill="#b0bec5" transform="matrix(.12 0 0 .12 -9.6 0)"/><g transform="matrix(.12 0 0 .12 0 -9.6)"><path d="m66.667 346.667-16.667 83.333 83.333-16.667z" fill="#ffc107"/><path d="m58.333 388.333-8.333 41.667 41.667-8.333z" fill="#37474f"/></g></g></svg>